<?xml version="1.0" encoding="UTF-8" standalone="no"?><svg xmlns="http://www.w3.org/2000/svg" xmlns:xlink="http://www.w3.org/1999/xlink" clip-rule="evenodd" stroke-miterlimit="4.00" viewBox="0 0 1024 768"><desc>SVG generated by Keynote</desc><defs></defs><g transform="matrix(1.00, 0.00, -0.00, -1.00, 0.0, 768.0)"><path d="M 0.0 768.0 L 1024.0 768.0 L 1024.0 0.0 L 0.0 0.0 Z M 0.0 768.0 " fill="#FEFFFE"></path><image xlink:href="../../2CC00DA2-964F-4954-89A4-A7D9E0943C1B/assets/6ED3ABFC6717F4CE81D0169C8891E54A.png" width="1024.00" height="576.00" transform="matrix(0.59, 0.00, -0.00, -0.59, 12.0, 748.0)"></image><path d="M 15.7 169.4 C 3.0 163.8 -3.2 149.3 1.6 136.3 C 7.6 119.9 27.2 115.0 38.7 102.4 C 49.5 90.6 51.7 73.8 59.1 59.7 C 79.0 21.3 127.5 8.4 163.8 31.8 L 182.9 69.5 C 187.3 72.9 192.5 75.2 198.0 76.2 C 235.1 83.1 262.5 42.2 242.1 10.4 L 277.6 0.0 C 287.1 0.8 296.1 4.3 303.6 10.0 C 330.5 30.5 333.0 69.9 309.1 93.7 L 282.6 87.0 L 354.7 106.5 C 362.8 108.4 371.1 109.4 379.4 109.5 C 434.0 110.4 483.1 76.5 501.5 25.1 L 533.3 74.7 " fill="none" stroke="#FF6E21" stroke-width="3.00" transform="matrix(1.00, 0.00, 0.00, -1.00, 48.2, 372.7)"></path><path d="M 145.7 522.7 C 150.4 517.9 150.4 510.2 145.7 505.4 C 141.0 500.7 133.4 500.7 128.7 505.4 C 124.0 510.2 124.0 517.9 128.7 522.7 C 133.4 527.4 141.0 527.4 145.7 522.7 Z M 145.7 522.7 " fill="#000000"></path><path d="M 252.7 555.0 C 257.4 550.3 257.4 542.5 252.7 537.8 C 248.0 533.0 240.3 533.0 235.6 537.8 C 230.9 542.5 230.9 550.3 235.6 555.0 C 240.3 559.8 248.0 559.8 252.7 555.0 Z M 252.7 555.0 " fill="#000000"></path><path d="M 332.2 577.3 C 336.9 572.5 336.9 564.8 332.2 560.0 C 327.5 555.3 319.9 555.3 315.1 560.0 C 310.4 564.8 310.4 572.5 315.1 577.3 C 319.9 582.0 327.5 582.0 332.2 577.3 Z M 332.2 577.3 " fill="#000000"></path><path d="M 373.5 586.1 C 378.2 581.3 378.2 573.6 373.5 568.9 C 368.7 564.1 361.1 564.1 356.4 568.9 C 351.7 573.6 351.7 581.3 356.4 586.1 C 361.1 590.8 368.7 590.8 373.5 586.1 Z M 373.5 586.1 " fill="#000000"></path><path d="M 401.0 492.1 C 405.7 487.4 405.7 479.7 401.0 474.9 C 396.3 470.1 388.7 470.1 384.0 474.9 C 379.3 479.7 379.3 487.4 384.0 492.1 C 388.7 496.9 396.3 496.9 401.0 492.1 Z M 401.0 492.1 " fill="#000000"></path><path d="M 373.5 503.5 C 378.2 498.8 378.2 491.0 373.5 486.3 C 368.7 481.5 361.1 481.5 356.4 486.3 C 351.7 491.0 351.7 498.8 356.4 503.5 C 361.1 508.3 368.7 508.3 373.5 503.5 Z M 373.5 503.5 " fill="#000000"></path><path d="M 476.1 476.7 C 480.8 471.9 480.8 464.2 476.1 459.5 C 471.4 454.7 463.7 454.7 459.0 459.5 C 454.3 464.2 454.3 471.9 459.0 476.7 C 463.7 481.4 471.4 481.4 476.1 476.7 Z M 476.1 476.7 " fill="#000000"></path><path d="M 596.6 555.0 C 601.3 550.3 601.3 542.5 596.6 537.8 C 591.9 533.0 584.2 533.0 579.5 537.8 C 574.8 542.5 574.8 550.3 579.5 555.0 C 584.2 559.8 591.9 559.8 596.6 555.0 Z M 596.6 555.0 " fill="#212121"></path><path d="M 45.6 237.1 L 0.0 112.0 C 9.6 106.8 20.7 104.6 31.6 105.9 C 48.6 107.9 63.7 117.9 72.2 132.8 C 82.5 156.6 107.9 170.0 133.3 164.9 C 161.6 159.3 180.8 133.0 177.8 104.4 C 186.4 104.3 194.9 104.3 203.5 104.4 C 282.3 105.8 360.4 119.4 435.0 144.9 C 446.5 137.6 457.1 129.0 466.6 119.3 C 495.7 89.9 514.2 51.8 519.4 10.7 L 560.9 0.0 L 586.1 10.5 " fill="none" stroke="#244BA1" stroke-width="3.00" transform="matrix(1.00, 0.00, 0.00, -1.00, 22.3, 287.0)"></path><path d="M 218.6 551.1 C 223.3 546.4 223.3 538.7 218.6 533.9 C 213.9 529.1 206.3 529.1 201.6 533.9 C 196.9 538.7 196.9 546.4 201.6 551.1 C 206.3 555.9 213.9 555.9 218.6 551.1 Z M 218.6 551.1 " fill="#000000"></path><path d="M 168.2 489.3 C 172.9 484.6 172.9 476.8 168.2 472.1 C 163.5 467.3 155.9 467.3 151.2 472.1 C 146.5 476.8 146.5 484.6 151.2 489.3 C 155.9 494.1 163.5 494.1 168.2 489.3 Z M 168.2 489.3 " fill="#000000"></path><path d="M 472.5 513.8 C 477.2 509.0 477.2 501.3 472.5 496.6 C 467.8 491.8 460.1 491.8 455.4 496.6 C 450.7 501.3 450.7 509.0 455.4 513.8 C 460.1 518.5 467.8 518.5 472.5 513.8 Z M 472.5 513.8 " fill="#000000"></path><path d="M 42.4 537.0 C 47.1 532.2 47.1 524.5 42.4 519.8 C 37.7 515.0 30.0 515.0 25.3 519.8 C 20.6 524.5 20.6 532.2 25.3 537.0 C 30.0 541.7 37.7 541.7 42.4 537.0 Z M 42.4 537.0 " fill="#000000"></path><path d="M 593.0 656.1 C 597.7 651.3 597.7 643.6 593.0 638.9 C 588.3 634.1 580.7 634.1 575.9 638.9 C 571.2 643.6 571.2 651.3 575.9 656.1 C 580.7 660.8 588.3 660.8 593.0 656.1 Z M 593.0 656.1 " fill="#000000"></path><path d="M 558.8 645.2 C 563.5 640.5 563.5 632.7 558.8 628.0 C 554.1 623.2 546.4 623.2 541.7 628.0 C 537.0 632.7 537.0 640.5 541.7 645.2 C 546.4 650.0 554.1 650.0 558.8 645.2 Z M 558.8 645.2 " fill="#000000"></path><text xml:space="preserve" font-family="Museo-500" font-size="80.0" fill="#244BA1" transform="matrix(1.00, 0.00, -0.00, -1.00, 642.0, 677.0)">S</text><text xml:space="preserve" font-family="Museo-500" font-size="80.0" fill="#244BA1" transform="matrix(1.00, 0.00, -0.00, -1.00, 685.0, 677.0)">e</text><text xml:space="preserve" font-family="Museo-500" font-size="80.0" fill="#244BA1" transform="matrix(1.00, 0.00, -0.00, -1.00, 729.2, 677.0)">p</text><text xml:space="preserve" font-family="Museo-500" font-size="80.0" fill="#244BA1" transform="matrix(1.00, 0.00, -0.00, -1.00, 777.1, 677.0)">a</text><text xml:space="preserve" font-family="Museo-500" font-size="80.0" fill="#244BA1" transform="matrix(1.00, 0.00, -0.00, -1.00, 820.6, 677.0)">r</text><text xml:space="preserve" font-family="Museo-500" font-size="80.0" fill="#244BA1" transform="matrix(1.00, 0.00, -0.00, -1.00, 849.1, 677.0)">a</text><text xml:space="preserve" font-family="Museo-500" font-size="80.0" fill="#244BA1" transform="matrix(1.00, 0.00, -0.00, -1.00, 892.6, 677.0)">t</text><text xml:space="preserve" font-family="Museo-500" font-size="80.0" fill="#244BA1" transform="matrix(1.00, 0.00, -0.00, -1.00, 920.1, 677.0)">e</text><text xml:space="preserve" font-family="Museo-500" font-size="80.0" fill="#244BA1" transform="matrix(1.00, 0.00, -0.00, -1.00, 964.2, 677.0)"> </text><text xml:space="preserve" font-family="Museo-500" font-size="80.0" fill="#244BA1" transform="matrix(1.00, 0.00, -0.00, -1.00, 642.0, 581.0)">p</text><text xml:space="preserve" font-family="Museo-500" font-size="80.0" fill="#244BA1" transform="matrix(1.00, 0.00, -0.00, -1.00, 690.3, 581.0)">e</text><text xml:space="preserve" font-family="Museo-500" font-size="80.0" fill="#244BA1" transform="matrix(1.00, 0.00, -0.00, -1.00, 734.5, 581.0)">o</text><text xml:space="preserve" font-family="Museo-500" font-size="80.0" fill="#244BA1" transform="matrix(1.00, 0.00, -0.00, -1.00, 783.8, 581.0)">p</text><text xml:space="preserve" font-family="Museo-500" font-size="80.0" fill="#244BA1" transform="matrix(1.00, 0.00, -0.00, -1.00, 831.4, 581.0)">l</text><text xml:space="preserve" font-family="Museo-500" font-size="80.0" fill="#244BA1" transform="matrix(1.00, 0.00, -0.00, -1.00, 852.9, 581.0)">e</text><text xml:space="preserve" font-family="Museo-500" font-size="80.0" fill="#244BA1" transform="matrix(1.00, 0.00, -0.00, -1.00, 897.0, 581.0)"> </text><text xml:space="preserve" font-family="Museo-500" font-size="80.0" fill="#244BA1" transform="matrix(1.00, 0.00, -0.00, -1.00, 642.0, 485.0)">f</text><text xml:space="preserve" font-family="Museo-500" font-size="80.0" fill="#244BA1" transform="matrix(1.00, 0.00, -0.00, -1.00, 668.0, 485.0)">r</text><text xml:space="preserve" font-family="Museo-500" font-size="80.0" fill="#244BA1" transform="matrix(1.00, 0.00, -0.00, -1.00, 697.4, 485.0)">o</text><text xml:space="preserve" font-family="Museo-500" font-size="80.0" fill="#244BA1" transform="matrix(1.00, 0.00, -0.00, -1.00, 746.7, 485.0)">m</text><text xml:space="preserve" font-family="Museo-500" font-size="80.0" fill="#244BA1" transform="matrix(1.00, 0.00, -0.00, -1.00, 821.7, 485.0)"> </text><text xml:space="preserve" font-family="Museo-500" font-size="80.0" fill="#244BA1" transform="matrix(1.00, 0.00, -0.00, -1.00, 642.0, 389.0)">a</text><text xml:space="preserve" font-family="Museo-500" font-size="80.0" fill="#244BA1" transform="matrix(1.00, 0.00, -0.00, -1.00, 685.5, 389.0)">c</text><text xml:space="preserve" font-family="Museo-500" font-size="80.0" fill="#244BA1" transform="matrix(1.00, 0.00, -0.00, -1.00, 728.2, 389.0)">t</text><text xml:space="preserve" font-family="Museo-500" font-size="80.0" fill="#244BA1" transform="matrix(1.00, 0.00, -0.00, -1.00, 756.3, 389.0)">i</text><text xml:space="preserve" font-family="Museo-500" font-size="80.0" fill="#244BA1" transform="matrix(1.00, 0.00, -0.00, -1.00, 777.9, 389.0)">v</text><text xml:space="preserve" font-family="Museo-500" font-size="80.0" fill="#244BA1" transform="matrix(1.00, 0.00, -0.00, -1.00, 820.5, 389.0)">i</text><text xml:space="preserve" font-family="Museo-500" font-size="80.0" fill="#244BA1" transform="matrix(1.00, 0.00, -0.00, -1.00, 842.5, 389.0)">t</text><text xml:space="preserve" font-family="Museo-500" font-size="80.0" fill="#244BA1" transform="matrix(1.00, 0.00, -0.00, -1.00, 870.6, 389.0)">i</text><text xml:space="preserve" font-family="Museo-500" font-size="80.0" fill="#244BA1" transform="matrix(1.00, 0.00, -0.00, -1.00, 892.6, 389.0)">e</text><text xml:space="preserve" font-family="Museo-500" font-size="80.0" fill="#244BA1" transform="matrix(1.00, 0.00, -0.00, -1.00, 936.8, 389.0)">s</text></g></svg>