<?xml version="1.0" encoding="UTF-8" standalone="no"?><svg xmlns="http://www.w3.org/2000/svg" xmlns:xlink="http://www.w3.org/1999/xlink" clip-rule="evenodd" stroke-miterlimit="4.00" viewBox="0 0 1024 768"><desc>SVG generated by Keynote</desc><defs></defs><g transform="matrix(1.00, 0.00, -0.00, -1.00, 0.0, 768.0)"><path d="M 0.0 768.0 L 1024.0 768.0 L 1024.0 0.0 L 0.0 0.0 Z M 0.0 768.0 " fill="#FEFFFE"></path><text xml:space="preserve" font-family="Museo-500" font-size="80.0" fill="#244BA1" transform="matrix(1.00, 0.00, -0.00, -1.00, 309.0, 627.0)">D</text><text xml:space="preserve" font-family="Museo-500" font-size="80.0" fill="#244BA1" transform="matrix(1.00, 0.00, -0.00, -1.00, 366.6, 627.0)">a</text><text xml:space="preserve" font-family="Museo-500" font-size="80.0" fill="#244BA1" transform="matrix(1.00, 0.00, -0.00, -1.00, 410.1, 627.0)">s</text><text xml:space="preserve" font-family="Museo-500" font-size="80.0" fill="#244BA1" transform="matrix(1.00, 0.00, -0.00, -1.00, 446.4, 627.0)">h</text><text xml:space="preserve" font-family="Museo-500" font-size="80.0" fill="#244BA1" transform="matrix(1.00, 0.00, -0.00, -1.00, 496.2, 627.0)">b</text><text xml:space="preserve" font-family="Museo-500" font-size="80.0" fill="#244BA1" transform="matrix(1.00, 0.00, -0.00, -1.00, 544.2, 627.0)">o</text><text xml:space="preserve" font-family="Museo-500" font-size="80.0" fill="#244BA1" transform="matrix(1.00, 0.00, -0.00, -1.00, 593.2, 627.0)">a</text><text xml:space="preserve" font-family="Museo-500" font-size="80.0" fill="#244BA1" transform="matrix(1.00, 0.00, -0.00, -1.00, 636.7, 627.0)">r</text><text xml:space="preserve" font-family="Museo-500" font-size="80.0" fill="#244BA1" transform="matrix(1.00, 0.00, -0.00, -1.00, 666.0, 627.0)">d</text><image xlink:href="../../A02D0D24-A2EB-416F-AC4B-98EA66503B94/assets/34020508067E6A1EA5BAD773A0774C62.png" width="872.00" height="540.00" transform="matrix(1.06, 0.00, -0.00, -1.05, 52.0, 586.0)"></image></g></svg>