<?xml version="1.0" encoding="UTF-8" standalone="no"?><svg xmlns="http://www.w3.org/2000/svg" xmlns:xlink="http://www.w3.org/1999/xlink" clip-rule="evenodd" stroke-miterlimit="4.00" viewBox="0 0 1024 768"><desc>SVG generated by Keynote</desc><defs></defs><g transform="matrix(1.00, 0.00, -0.00, -1.00, 0.0, 768.0)"><path d="M 0.0 768.0 L 1024.0 768.0 L 1024.0 0.0 L 0.0 0.0 Z M 0.0 768.0 " fill="#FEFFFE"></path><image xlink:href="../../2CC00DA2-964F-4954-89A4-A7D9E0943C1B/assets/6ED3ABFC6717F4CE81D0169C8891E54A.png" width="1024.00" height="576.00" transform="matrix(1.00, 0.00, -0.00, -1.00, 0.0, 738.0)"></image><path d="M 70.4 9.4 C 86.5 21.8 86.5 42.1 70.4 54.6 C 54.3 67.0 28.2 67.0 12.1 54.6 C -4.0 42.1 -4.0 21.8 12.1 9.4 C 28.2 -3.1 54.3 -3.1 70.4 9.4 Z M 70.4 9.4 " fill="none" stroke="#FF6E21" stroke-width="4.00" transform="matrix(1.00, 0.00, 0.00, -1.00, -14.1, 442.5)"></path><path d="M 159.8 298.1 L 157.9 298.5 C 82.0 309.5 30.1 215.6 2.2 16.6 L 2.0 14.7 " fill="none" stroke="#FF6E21" stroke-width="4.00" transform="matrix(1.00, 0.00, 0.00, -1.00, 31.2, 376.7)"></path><path d="M 41.7 361.2 L 31.2 376.7 L 25.1 358.9 Z M 41.7 361.2 " fill="#FF6E21"></path><path d="M 5.5 3.0 C 5.5 4.4 4.4 5.5 3.0 5.5 C 1.6 5.5 0.5 4.4 0.5 3.0 C 0.5 1.6 1.6 0.5 3.0 0.5 C 4.4 0.5 5.5 1.6 5.5 3.0 Z M 5.5 3.0 " fill="none" stroke="#FF6E21" stroke-width="1.43" stroke-miterlimit="10.00" transform="matrix(-0.67, 2.72, 2.72, 0.67, 191.9, 70.2)"></path><text xml:space="preserve" font-family="LucidaSans" font-size="32.0" fill="#244BA1" transform="matrix(1.00, 0.00, -0.00, -1.00, 217.0, 71.0)">l</text><text xml:space="preserve" font-family="LucidaSans" font-size="32.0" fill="#244BA1" transform="matrix(1.00, 0.00, -0.00, -1.00, 226.3, 71.0)">e</text><text xml:space="preserve" font-family="LucidaSans" font-size="32.0" fill="#244BA1" transform="matrix(1.00, 0.00, -0.00, -1.00, 244.1, 71.0)">t</text><text xml:space="preserve" font-family="LucidaSans" font-size="32.0" fill="#244BA1" transform="matrix(1.00, 0.00, -0.00, -1.00, 256.1, 71.0)">’</text><text xml:space="preserve" font-family="LucidaSans" font-size="32.0" fill="#244BA1" transform="matrix(1.00, 0.00, -0.00, -1.00, 266.2, 71.0)">s</text><text xml:space="preserve" font-family="LucidaSans" font-size="32.0" fill="#244BA1" transform="matrix(1.00, 0.00, -0.00, -1.00, 282.5, 71.0)"> </text><text xml:space="preserve" font-family="LucidaSans" font-size="32.0" fill="#244BA1" transform="matrix(1.00, 0.00, -0.00, -1.00, 292.6, 71.0)">A</text><text xml:space="preserve" font-family="LucidaSans" font-size="32.0" fill="#244BA1" transform="matrix(1.00, 0.00, -0.00, -1.00, 314.7, 71.0)">/</text><text xml:space="preserve" font-family="LucidaSans" font-size="32.0" fill="#244BA1" transform="matrix(1.00, 0.00, -0.00, -1.00, 330.5, 71.0)">B</text><text xml:space="preserve" font-family="LucidaSans" font-size="32.0" fill="#244BA1" transform="matrix(1.00, 0.00, -0.00, -1.00, 348.9, 71.0)"> </text><text xml:space="preserve" font-family="LucidaSans" font-size="32.0" fill="#244BA1" transform="matrix(1.00, 0.00, -0.00, -1.00, 359.1, 71.0)">t</text><text xml:space="preserve" font-family="LucidaSans" font-size="32.0" fill="#244BA1" transform="matrix(1.00, 0.00, -0.00, -1.00, 371.0, 71.0)">e</text><text xml:space="preserve" font-family="LucidaSans" font-size="32.0" fill="#244BA1" transform="matrix(1.00, 0.00, -0.00, -1.00, 388.9, 71.0)">s</text><text xml:space="preserve" font-family="LucidaSans" font-size="32.0" fill="#244BA1" transform="matrix(1.00, 0.00, -0.00, -1.00, 405.2, 71.0)">t</text><text xml:space="preserve" font-family="LucidaSans" font-size="32.0" fill="#244BA1" transform="matrix(1.00, 0.00, -0.00, -1.00, 417.2, 71.0)"> </text><text xml:space="preserve" font-family="LucidaSans" font-size="32.0" fill="#244BA1" transform="matrix(1.00, 0.00, -0.00, -1.00, 427.3, 71.0)">d</text><text xml:space="preserve" font-family="LucidaSans" font-size="32.0" fill="#244BA1" transform="matrix(1.00, 0.00, -0.00, -1.00, 447.4, 71.0)">i</text><text xml:space="preserve" font-family="LucidaSans" font-size="32.0" fill="#244BA1" transform="matrix(1.00, 0.00, -0.00, -1.00, 456.7, 71.0)">s</text><text xml:space="preserve" font-family="LucidaSans" font-size="32.0" fill="#244BA1" transform="matrix(1.00, 0.00, -0.00, -1.00, 473.0, 71.0)">p</text><text xml:space="preserve" font-family="LucidaSans" font-size="32.0" fill="#244BA1" transform="matrix(1.00, 0.00, -0.00, -1.00, 493.2, 71.0)">l</text><text xml:space="preserve" font-family="LucidaSans" font-size="32.0" fill="#244BA1" transform="matrix(1.00, 0.00, -0.00, -1.00, 502.4, 71.0)">a</text><text xml:space="preserve" font-family="LucidaSans" font-size="32.0" fill="#244BA1" transform="matrix(1.00, 0.00, -0.00, -1.00, 520.1, 71.0)">y</text><text xml:space="preserve" font-family="LucidaSans" font-size="32.0" fill="#244BA1" transform="matrix(1.00, 0.00, -0.00, -1.00, 536.8, 71.0)">s</text><text xml:space="preserve" font-family="LucidaSans" font-size="32.0" fill="#244BA1" transform="matrix(1.00, 0.00, -0.00, -1.00, 553.1, 71.0)"> </text><text xml:space="preserve" font-family="LucidaSans" font-size="32.0" fill="#244BA1" transform="matrix(1.00, 0.00, -0.00, -1.00, 563.3, 71.0)">i</text><text xml:space="preserve" font-family="LucidaSans" font-size="32.0" fill="#244BA1" transform="matrix(1.00, 0.00, -0.00, -1.00, 572.5, 71.0)">n</text><text xml:space="preserve" font-family="LucidaSans" font-size="32.0" fill="#244BA1" transform="matrix(1.00, 0.00, -0.00, -1.00, 592.4, 71.0)"> </text><text xml:space="preserve" font-family="LucidaSans" font-size="32.0" fill="#244BA1" transform="matrix(1.00, 0.00, -0.00, -1.00, 602.5, 71.0)">t</text><text xml:space="preserve" font-family="LucidaSans" font-size="32.0" fill="#244BA1" transform="matrix(1.00, 0.00, -0.00, -1.00, 614.5, 71.0)">h</text><text xml:space="preserve" font-family="LucidaSans" font-size="32.0" fill="#244BA1" transform="matrix(1.00, 0.00, -0.00, -1.00, 634.3, 71.0)">i</text><text xml:space="preserve" font-family="LucidaSans" font-size="32.0" fill="#244BA1" transform="matrix(1.00, 0.00, -0.00, -1.00, 643.6, 71.0)">s</text><text xml:space="preserve" font-family="LucidaSans" font-size="32.0" fill="#244BA1" transform="matrix(1.00, 0.00, -0.00, -1.00, 659.9, 71.0)"> </text><text xml:space="preserve" font-family="LucidaSans" font-size="32.0" fill="#244BA1" transform="matrix(1.00, 0.00, -0.00, -1.00, 670.0, 71.0)">s</text><text xml:space="preserve" font-family="LucidaSans" font-size="32.0" fill="#244BA1" transform="matrix(1.00, 0.00, -0.00, -1.00, 686.3, 71.0)">p</text><text xml:space="preserve" font-family="LucidaSans" font-size="32.0" fill="#244BA1" transform="matrix(1.00, 0.00, -0.00, -1.00, 706.5, 71.0)">a</text><text xml:space="preserve" font-family="LucidaSans" font-size="32.0" fill="#244BA1" transform="matrix(1.00, 0.00, -0.00, -1.00, 724.2, 71.0)">c</text><text xml:space="preserve" font-family="LucidaSans" font-size="32.0" fill="#244BA1" transform="matrix(1.00, 0.00, -0.00, -1.00, 740.5, 71.0)">e</text></g></svg>