<?xml version="1.0" encoding="UTF-8" standalone="no"?><svg xmlns="http://www.w3.org/2000/svg" xmlns:xlink="http://www.w3.org/1999/xlink" clip-rule="evenodd" stroke-miterlimit="4.00" viewBox="0 0 1024 768"><desc>SVG generated by Keynote</desc><defs></defs><g transform="matrix(1.00, 0.00, -0.00, -1.00, 0.0, 768.0)"><path d="M 0.0 768.0 L 1024.0 768.0 L 1024.0 0.0 L 0.0 0.0 Z M 0.0 768.0 " fill="#FEFFFE"></path><g><clipPath id="clip-2"><path d="M 0.0 162.0 L 1024.0 162.0 L 1024.0 738.0 L 0.0 738.0 Z M 0.0 162.0 "></path></clipPath><g clip-path="url(#clip-2)"><image xlink:href="../../2CC00DA2-964F-4954-89A4-A7D9E0943C1B/assets/6ED3ABFC6717F4CE81D0169C8891E54A.png" width="1024.00" height="576.00" transform="matrix(1.00, 0.00, -0.00, -1.00, 0.0, 738.0)"></image></g></g><g><clipPath id="clip-3"><path d="M 306.3 171.7 L 670.6 171.7 L 670.6 331.5 L 306.3 331.5 Z M 306.3 171.7 "></path></clipPath><g clip-path="url(#clip-3)"><path d="M 305.9 22.5 C 375.9 52.6 375.9 101.2 305.9 131.3 C 235.9 161.3 122.5 161.3 52.5 131.3 C -17.5 101.2 -17.5 52.6 52.5 22.5 C 122.5 -7.5 235.9 -7.5 305.9 22.5 Z M 305.9 22.5 " fill="none" stroke="#FF6E21" stroke-width="4.00" transform="matrix(1.00, 0.00, 0.00, -1.00, 309.3, 328.5)"></path></g></g><path d="M 0.1 162.5 L 0.1 160.5 C 1.9 70.8 34.9 18.3 99.3 3.0 L 101.2 2.7 " fill="none" stroke="#FF6E21" stroke-width="4.00" transform="matrix(1.00, 0.00, 0.00, -1.00, 198.0, 249.6)"></path><path d="M 298.7 238.3 L 313.8 249.6 L 295.7 254.8 Z M 298.7 238.3 " fill="#FF6E21"></path><path d="M 5.5 3.0 C 5.5 4.4 4.4 5.5 3.0 5.5 C 1.6 5.5 0.5 4.4 0.5 3.0 C 0.5 1.6 1.6 0.5 3.0 0.5 C 4.4 0.5 5.5 1.6 5.5 3.0 Z M 5.5 3.0 " fill="none" stroke="#FF6E21" stroke-width="1.43" stroke-miterlimit="10.00" transform="matrix(2.80, 0.01, 0.01, -2.80, 189.6, 88.2)"></path><text xml:space="preserve" font-family="LucidaSans" font-size="32.0" fill="#244BA1" transform="matrix(1.00, 0.00, -0.00, -1.00, 217.0, 71.0)">w</text><text xml:space="preserve" font-family="LucidaSans" font-size="32.0" fill="#244BA1" transform="matrix(1.00, 0.00, -0.00, -1.00, 241.6, 71.0)">h</text><text xml:space="preserve" font-family="LucidaSans" font-size="32.0" fill="#244BA1" transform="matrix(1.00, 0.00, -0.00, -1.00, 261.5, 71.0)">i</text><text xml:space="preserve" font-family="LucidaSans" font-size="32.0" fill="#244BA1" transform="matrix(1.00, 0.00, -0.00, -1.00, 270.7, 71.0)">c</text><text xml:space="preserve" font-family="LucidaSans" font-size="32.0" fill="#244BA1" transform="matrix(1.00, 0.00, -0.00, -1.00, 287.1, 71.0)">h</text><text xml:space="preserve" font-family="LucidaSans" font-size="32.0" fill="#244BA1" transform="matrix(1.00, 0.00, -0.00, -1.00, 307.0, 71.0)"> </text><text xml:space="preserve" font-family="LucidaSans" font-size="32.0" fill="#244BA1" transform="matrix(1.00, 0.00, -0.00, -1.00, 317.1, 71.0)">o</text><text xml:space="preserve" font-family="LucidaSans" font-size="32.0" fill="#244BA1" transform="matrix(1.00, 0.00, -0.00, -1.00, 336.8, 71.0)">n</text><text xml:space="preserve" font-family="LucidaSans" font-size="32.0" fill="#244BA1" transform="matrix(1.00, 0.00, -0.00, -1.00, 356.6, 71.0)">e</text><text xml:space="preserve" font-family="LucidaSans" font-size="32.0" fill="#244BA1" transform="matrix(1.00, 0.00, -0.00, -1.00, 374.5, 71.0)">s</text><text xml:space="preserve" font-family="LucidaSans" font-size="32.0" fill="#244BA1" transform="matrix(1.00, 0.00, -0.00, -1.00, 390.8, 71.0)"> </text><text xml:space="preserve" font-family="LucidaSans" font-size="32.0" fill="#244BA1" transform="matrix(1.00, 0.00, -0.00, -1.00, 400.9, 71.0)">d</text><text xml:space="preserve" font-family="LucidaSans" font-size="32.0" fill="#244BA1" transform="matrix(1.00, 0.00, -0.00, -1.00, 421.1, 71.0)">o</text><text xml:space="preserve" font-family="LucidaSans" font-size="32.0" fill="#244BA1" transform="matrix(1.00, 0.00, -0.00, -1.00, 440.7, 71.0)"> </text><text xml:space="preserve" font-family="LucidaSans" font-size="32.0" fill="#244BA1" transform="matrix(1.00, 0.00, -0.00, -1.00, 450.9, 71.0)">p</text><text xml:space="preserve" font-family="LucidaSans" font-size="32.0" fill="#244BA1" transform="matrix(1.00, 0.00, -0.00, -1.00, 471.0, 71.0)">e</text><text xml:space="preserve" font-family="LucidaSans" font-size="32.0" fill="#244BA1" transform="matrix(1.00, 0.00, -0.00, -1.00, 488.9, 71.0)">o</text><text xml:space="preserve" font-family="LucidaSans" font-size="32.0" fill="#244BA1" transform="matrix(1.00, 0.00, -0.00, -1.00, 508.5, 71.0)">p</text><text xml:space="preserve" font-family="LucidaSans" font-size="32.0" fill="#244BA1" transform="matrix(1.00, 0.00, -0.00, -1.00, 528.7, 71.0)">l</text><text xml:space="preserve" font-family="LucidaSans" font-size="32.0" fill="#244BA1" transform="matrix(1.00, 0.00, -0.00, -1.00, 537.9, 71.0)">e</text><text xml:space="preserve" font-family="LucidaSans" font-size="32.0" fill="#244BA1" transform="matrix(1.00, 0.00, -0.00, -1.00, 555.8, 71.0)"> </text><text xml:space="preserve" font-family="LucidaSans" font-size="32.0" fill="#244BA1" transform="matrix(1.00, 0.00, -0.00, -1.00, 565.9, 71.0)">l</text><text xml:space="preserve" font-family="LucidaSans" font-size="32.0" fill="#244BA1" transform="matrix(1.00, 0.00, -0.00, -1.00, 575.1, 71.0)">o</text><text xml:space="preserve" font-family="LucidaSans" font-size="32.0" fill="#244BA1" transform="matrix(1.00, 0.00, -0.00, -1.00, 594.8, 71.0)">o</text><text xml:space="preserve" font-family="LucidaSans" font-size="32.0" fill="#244BA1" transform="matrix(1.00, 0.00, -0.00, -1.00, 614.5, 71.0)">k</text><text xml:space="preserve" font-family="LucidaSans" font-size="32.0" fill="#244BA1" transform="matrix(1.00, 0.00, -0.00, -1.00, 633.2, 71.0)"> </text><text xml:space="preserve" font-family="LucidaSans" font-size="32.0" fill="#244BA1" transform="matrix(1.00, 0.00, -0.00, -1.00, 643.3, 71.0)">a</text><text xml:space="preserve" font-family="LucidaSans" font-size="32.0" fill="#244BA1" transform="matrix(1.00, 0.00, -0.00, -1.00, 661.0, 71.0)">t</text><text xml:space="preserve" font-family="LucidaSans" font-size="32.0" fill="#244BA1" transform="matrix(1.00, 0.00, -0.00, -1.00, 673.0, 71.0)">?</text></g></svg>