<?xml version="1.0" encoding="UTF-8" standalone="no"?><svg xmlns="http://www.w3.org/2000/svg" xmlns:xlink="http://www.w3.org/1999/xlink" clip-rule="evenodd" stroke-miterlimit="4.00" viewBox="0 0 1024 768"><desc>SVG generated by Keynote</desc><defs></defs><g transform="matrix(1.00, 0.00, -0.00, -1.00, 0.0, 768.0)"><path d="M 0.0 768.0 L 1024.0 768.0 L 1024.0 0.0 L 0.0 0.0 Z M 0.0 768.0 " fill="#FF6E21"></path><text xml:space="preserve" font-family="Museo-500" font-size="80.0" fill="#FEFFFF" transform="matrix(1.00, 0.00, -0.00, -1.00, 263.0, 357.0)">l</text><text xml:space="preserve" font-family="Museo-500" font-size="80.0" fill="#FEFFFF" transform="matrix(1.00, 0.00, -0.00, -1.00, 284.4, 357.0)">i</text><text xml:space="preserve" font-family="Museo-500" font-size="80.0" fill="#FEFFFF" transform="matrix(1.00, 0.00, -0.00, -1.00, 306.4, 357.0)">b</text><text xml:space="preserve" font-family="Museo-500" font-size="80.0" fill="#FEFFFF" transform="matrix(1.00, 0.00, -0.00, -1.00, 354.4, 357.0)">r</text><text xml:space="preserve" font-family="Museo-500" font-size="80.0" fill="#FEFFFF" transform="matrix(1.00, 0.00, -0.00, -1.00, 382.9, 357.0)">a</text><text xml:space="preserve" font-family="Museo-500" font-size="80.0" fill="#FEFFFF" transform="matrix(1.00, 0.00, -0.00, -1.00, 426.4, 357.0)">r</text><text xml:space="preserve" font-family="Museo-500" font-size="80.0" fill="#FEFFFF" transform="matrix(1.00, 0.00, -0.00, -1.00, 458.4, 357.0)">y</text><text xml:space="preserve" font-family="Museo-500" font-size="80.0" fill="#FEFFFF" transform="matrix(1.00, 0.00, -0.00, -1.00, 502.1, 357.0)"> </text><text xml:space="preserve" font-family="Museo-500" font-size="80.0" fill="#FEFFFF" transform="matrix(1.00, 0.00, -0.00, -1.00, 523.6, 357.0)">v</text><text xml:space="preserve" font-family="Museo-500" font-size="80.0" fill="#FEFFFF" transform="matrix(1.00, 0.00, -0.00, -1.00, 565.8, 357.0)">a</text><text xml:space="preserve" font-family="Museo-500" font-size="80.0" fill="#FEFFFF" transform="matrix(1.00, 0.00, -0.00, -1.00, 609.3, 357.0)">l</text><text xml:space="preserve" font-family="Museo-500" font-size="80.0" fill="#FEFFFF" transform="matrix(1.00, 0.00, -0.00, -1.00, 630.8, 357.0)">u</text><text xml:space="preserve" font-family="Museo-500" font-size="80.0" fill="#FEFFFF" transform="matrix(1.00, 0.00, -0.00, -1.00, 680.4, 357.0)">e</text><text xml:space="preserve" font-family="Museo-500" font-size="80.0" fill="#FEFFFF" transform="matrix(1.00, 0.00, -0.00, -1.00, 724.6, 357.0)">s</text></g></svg>