<?xml version="1.0" encoding="UTF-8" standalone="no"?><svg xmlns="http://www.w3.org/2000/svg" xmlns:xlink="http://www.w3.org/1999/xlink" clip-rule="evenodd" stroke-miterlimit="4.00" viewBox="0 0 1024 768"><desc>SVG generated by Keynote</desc><defs></defs><g transform="matrix(1.00, 0.00, -0.00, -1.00, 0.0, 768.0)"><path d="M 0.0 768.0 L 1024.0 768.0 L 1024.0 0.0 L 0.0 0.0 Z M 0.0 768.0 " fill="#FEFFFE"></path><image xlink:href="../../AD9BD68E-77A0-4CBF-91EB-AF406628A8F3/assets/28347E870ACE2D64AA18592F807FD3E9.jpeg" width="438.00" height="292.00" transform="matrix(1.00, 0.00, -0.00, -1.00, 42.0, 530.0)"></image><image xlink:href="../../AD9BD68E-77A0-4CBF-91EB-AF406628A8F3/assets/4E02009D9260389D016A38C6B999EE62.jpeg" width="43.00" height="29.00" transform="matrix(10.07, 0.00, -0.00, -10.07, 549.0, 530.0)"></image><text xml:space="preserve" font-family="Museo-500" font-size="80.0" fill="#244BA1" transform="matrix(1.00, 0.00, -0.00, -1.00, 114.0, 627.0)">D</text><text xml:space="preserve" font-family="Museo-500" font-size="80.0" fill="#244BA1" transform="matrix(1.00, 0.00, -0.00, -1.00, 171.6, 627.0)">o</text><text xml:space="preserve" font-family="Museo-500" font-size="80.0" fill="#244BA1" transform="matrix(1.00, 0.00, -0.00, -1.00, 221.0, 627.0)">n</text><text xml:space="preserve" font-family="Museo-500" font-size="80.0" fill="#244BA1" transform="matrix(1.00, 0.00, -0.00, -1.00, 268.1, 627.0)">’</text><text xml:space="preserve" font-family="Museo-500" font-size="80.0" fill="#244BA1" transform="matrix(1.00, 0.00, -0.00, -1.00, 286.3, 627.0)">t</text><text xml:space="preserve" font-family="Museo-500" font-size="80.0" fill="#244BA1" transform="matrix(1.00, 0.00, -0.00, -1.00, 314.5, 627.0)"> </text><text xml:space="preserve" font-family="Museo-500" font-size="80.0" fill="#244BA1" transform="matrix(1.00, 0.00, -0.00, -1.00, 336.0, 627.0)">s</text><text xml:space="preserve" font-family="Museo-500" font-size="80.0" fill="#244BA1" transform="matrix(1.00, 0.00, -0.00, -1.00, 372.3, 627.0)">e</text><text xml:space="preserve" font-family="Museo-500" font-size="80.0" fill="#244BA1" transform="matrix(1.00, 0.00, -0.00, -1.00, 416.5, 627.0)">e</text><text xml:space="preserve" font-family="Museo-500" font-size="80.0" fill="#244BA1" transform="matrix(1.00, 0.00, -0.00, -1.00, 460.6, 627.0)"> </text><text xml:space="preserve" font-family="Museo-500" font-size="80.0" fill="#244BA1" transform="matrix(1.00, 0.00, -0.00, -1.00, 482.2, 627.0)">t</text><text xml:space="preserve" font-family="Museo-500" font-size="80.0" fill="#244BA1" transform="matrix(1.00, 0.00, -0.00, -1.00, 509.8, 627.0)">h</text><text xml:space="preserve" font-family="Museo-500" font-size="80.0" fill="#244BA1" transform="matrix(1.00, 0.00, -0.00, -1.00, 559.5, 627.0)">e</text><text xml:space="preserve" font-family="Museo-500" font-size="80.0" fill="#244BA1" transform="matrix(1.00, 0.00, -0.00, -1.00, 603.7, 627.0)"> </text><text xml:space="preserve" font-family="Museo-500" font-size="80.0" fill="#244BA1" transform="matrix(1.00, 0.00, -0.00, -1.00, 625.2, 627.0)">p</text><text xml:space="preserve" font-family="Museo-500" font-size="80.0" fill="#244BA1" transform="matrix(1.00, 0.00, -0.00, -1.00, 673.1, 627.0)">a</text><text xml:space="preserve" font-family="Museo-500" font-size="80.0" fill="#244BA1" transform="matrix(1.00, 0.00, -0.00, -1.00, 716.6, 627.0)">t</text><text xml:space="preserve" font-family="Museo-500" font-size="80.0" fill="#244BA1" transform="matrix(1.00, 0.00, -0.00, -1.00, 744.8, 627.0)">r</text><text xml:space="preserve" font-family="Museo-500" font-size="80.0" fill="#244BA1" transform="matrix(1.00, 0.00, -0.00, -1.00, 774.2, 627.0)">o</text><text xml:space="preserve" font-family="Museo-500" font-size="80.0" fill="#244BA1" transform="matrix(1.00, 0.00, -0.00, -1.00, 823.5, 627.0)">n</text><text xml:space="preserve" font-family="Museo-500" font-size="80.0" fill="#244BA1" transform="matrix(1.00, 0.00, -0.00, -1.00, 873.6, 627.0)">s</text><text xml:space="preserve" font-family="LucidaSans" font-size="32.0" fill="#FF6E21" transform="matrix(1.00, 0.00, -0.00, -1.00, 247.0, 122.0)">(</text><text xml:space="preserve" font-family="LucidaSans" font-size="32.0" fill="#FF6E21" transform="matrix(1.00, 0.00, -0.00, -1.00, 257.4, 122.0)">…</text><text xml:space="preserve" font-family="LucidaSans" font-size="32.0" fill="#FF6E21" transform="matrix(1.00, 0.00, -0.00, -1.00, 289.4, 122.0)">a</text><text xml:space="preserve" font-family="LucidaSans" font-size="32.0" fill="#FF6E21" transform="matrix(1.00, 0.00, -0.00, -1.00, 307.1, 122.0)">n</text><text xml:space="preserve" font-family="LucidaSans" font-size="32.0" fill="#FF6E21" transform="matrix(1.00, 0.00, -0.00, -1.00, 326.9, 122.0)">d</text><text xml:space="preserve" font-family="LucidaSans" font-size="32.0" fill="#FF6E21" transform="matrix(1.00, 0.00, -0.00, -1.00, 347.1, 122.0)"> </text><text xml:space="preserve" font-family="LucidaSans" font-size="32.0" fill="#FF6E21" transform="matrix(1.00, 0.00, -0.00, -1.00, 357.2, 122.0)">t</text><text xml:space="preserve" font-family="LucidaSans" font-size="32.0" fill="#FF6E21" transform="matrix(1.00, 0.00, -0.00, -1.00, 369.2, 122.0)">h</text><text xml:space="preserve" font-family="LucidaSans" font-size="32.0" fill="#FF6E21" transform="matrix(1.00, 0.00, -0.00, -1.00, 389.0, 122.0)">e</text><text xml:space="preserve" font-family="LucidaSans" font-size="32.0" fill="#FF6E21" transform="matrix(1.00, 0.00, -0.00, -1.00, 406.9, 122.0)">n</text><text xml:space="preserve" font-family="LucidaSans" font-size="32.0" fill="#FF6E21" transform="matrix(1.00, 0.00, -0.00, -1.00, 426.7, 122.0)"> </text><text xml:space="preserve" font-family="LucidaSans" font-size="32.0" fill="#FF6E21" transform="matrix(1.00, 0.00, -0.00, -1.00, 436.9, 122.0)">t</text><text xml:space="preserve" font-family="LucidaSans" font-size="32.0" fill="#FF6E21" transform="matrix(1.00, 0.00, -0.00, -1.00, 448.8, 122.0)">h</text><text xml:space="preserve" font-family="LucidaSans" font-size="32.0" fill="#FF6E21" transform="matrix(1.00, 0.00, -0.00, -1.00, 468.7, 122.0)">r</text><text xml:space="preserve" font-family="LucidaSans" font-size="32.0" fill="#FF6E21" transform="matrix(1.00, 0.00, -0.00, -1.00, 481.8, 122.0)">o</text><text xml:space="preserve" font-family="LucidaSans" font-size="32.0" fill="#FF6E21" transform="matrix(1.00, 0.00, -0.00, -1.00, 501.4, 122.0)">w</text><text xml:space="preserve" font-family="LucidaSans" font-size="32.0" fill="#FF6E21" transform="matrix(1.00, 0.00, -0.00, -1.00, 526.1, 122.0)"> </text><text xml:space="preserve" font-family="LucidaSans" font-size="32.0" fill="#FF6E21" transform="matrix(1.00, 0.00, -0.00, -1.00, 536.2, 122.0)">t</text><text xml:space="preserve" font-family="LucidaSans" font-size="32.0" fill="#FF6E21" transform="matrix(1.00, 0.00, -0.00, -1.00, 548.2, 122.0)">h</text><text xml:space="preserve" font-family="LucidaSans" font-size="32.0" fill="#FF6E21" transform="matrix(1.00, 0.00, -0.00, -1.00, 568.0, 122.0)">e</text><text xml:space="preserve" font-family="LucidaSans" font-size="32.0" fill="#FF6E21" transform="matrix(1.00, 0.00, -0.00, -1.00, 585.9, 122.0)"> </text><text xml:space="preserve" font-family="LucidaSans" font-size="32.0" fill="#FF6E21" transform="matrix(1.00, 0.00, -0.00, -1.00, 596.0, 122.0)">v</text><text xml:space="preserve" font-family="LucidaSans" font-size="32.0" fill="#FF6E21" transform="matrix(1.00, 0.00, -0.00, -1.00, 612.6, 122.0)">i</text><text xml:space="preserve" font-family="LucidaSans" font-size="32.0" fill="#FF6E21" transform="matrix(1.00, 0.00, -0.00, -1.00, 621.8, 122.0)">d</text><text xml:space="preserve" font-family="LucidaSans" font-size="32.0" fill="#FF6E21" transform="matrix(1.00, 0.00, -0.00, -1.00, 642.0, 122.0)">e</text><text xml:space="preserve" font-family="LucidaSans" font-size="32.0" fill="#FF6E21" transform="matrix(1.00, 0.00, -0.00, -1.00, 659.8, 122.0)">o</text><text xml:space="preserve" font-family="LucidaSans" font-size="32.0" fill="#FF6E21" transform="matrix(1.00, 0.00, -0.00, -1.00, 679.5, 122.0)"> </text><text xml:space="preserve" font-family="LucidaSans" font-size="32.0" fill="#FF6E21" transform="matrix(1.00, 0.00, -0.00, -1.00, 689.6, 122.0)">a</text><text xml:space="preserve" font-family="LucidaSans" font-size="32.0" fill="#FF6E21" transform="matrix(1.00, 0.00, -0.00, -1.00, 707.3, 122.0)">w</text><text xml:space="preserve" font-family="LucidaSans" font-size="32.0" fill="#FF6E21" transform="matrix(1.00, 0.00, -0.00, -1.00, 731.9, 122.0)">a</text><text xml:space="preserve" font-family="LucidaSans" font-size="32.0" fill="#FF6E21" transform="matrix(1.00, 0.00, -0.00, -1.00, 749.6, 122.0)">y</text><text xml:space="preserve" font-family="LucidaSans" font-size="32.0" fill="#FF6E21" transform="matrix(1.00, 0.00, -0.00, -1.00, 766.3, 122.0)">)</text></g></svg>